<svg xmlns="http://www.w3.org/2000/svg" width="44" height="44" viewBox="0 0 44 44">
    <path fill="#343434" fill-rule="nonzero" d="M22 1.5c11.322 0 20.5 9.178 20.5 20.5S33.322 42.5 22 42.5 1.5 33.322 1.5 22C1.513 10.683 10.683 1.513 22 1.5zM22 0C9.85 0 0 9.85 0 22s9.85 22 22 22 22-9.85 22-22A22 22 0 0 0 22 0zm-3.15 14.9a4.65 4.65 0 1 0-9.3 0 .75.75 0 1 0 1.5 0 3.15 3.15 0 1 1 6.3 0 .75.75 0 1 0 1.5 0zm15.6 0a4.65 4.65 0 1 0-9.3 0 .75.75 0 1 0 1.5 0 3.15 3.15 0 1 1 6.3 0 .75.75 0 1 0 1.5 0zm3.15 5.75a.75.75 0 0 0-.75.75 14.747 14.747 0 0 1-.972 5.24l-2.028-2.028a3.35 3.35 0 0 0-4.738 4.738l2.945 2.945A14.826 14.826 0 0 1 7.15 21.4a.75.75 0 1 0-1.5 0c0 9.03 7.32 16.35 16.35 16.35 9.03 0 16.35-7.32 16.35-16.35a.75.75 0 0 0-.75-.75zm-4.493 10.574l-2.935-2.935a1.85 1.85 0 1 1 2.617-2.616l2.377 2.377a.701.701 0 0 0 .07.046 14.874 14.874 0 0 1-2.13 3.128z"/>
</svg>
