<svg xmlns="http://www.w3.org/2000/svg" width="37" height="43" viewBox="0 0 37 43">
    <path fill="#343434" fill-rule="nonzero" d="M32.891 23.41a3.292 3.292 0 0 0-1.79-5.446 3.302 3.302 0 0 0-.125-4.526 3.217 3.217 0 0 0-1.682-.874l6.203-6.204a3.308 3.308 0 0 0-4.677-4.677L12.757 19.745a.561.561 0 0 1-.793 0L6.69 14.471a3.49 3.49 0 0 0-5.258 4.561l1.85 2.468a5.016 5.016 0 0 1 .477 5.283l-1.624 3.248a1.96 1.96 0 0 0 .368 2.267L12.204 42a1.952 1.952 0 0 0 2.01.475l7.623-2.541a12.052 12.052 0 0 0 4.685-2.896l8.071-8.071a3.308 3.308 0 0 0 0-4.678 3.225 3.225 0 0 0-1.702-.88zm.642 4.496l-8.072 8.072a10.53 10.53 0 0 1-4.098 2.532l-7.623 2.542a.465.465 0 0 1-.475-.113l-9.702-9.703a.462.462 0 0 1-.086-.534L5.1 27.454a6.51 6.51 0 0 0-.62-6.854l-1.85-2.468a1.99 1.99 0 0 1 2.998-2.6l5.275 5.275a2.066 2.066 0 0 0 2.914-.001L31.88 2.743A1.808 1.808 0 0 1 34.437 5.3L22.682 17.056a.75.75 0 1 0 1.06 1.06L27.36 14.5a1.847 1.847 0 0 1 2.555 0 1.81 1.81 0 0 1 0 2.557l-1.803 1.803-.005.004-1.808 1.809-.362.362a.75.75 0 0 0 1.06 1.06l2.176-2.174a1.807 1.807 0 1 1 2.551 2.56l-1.809 1.81a.75.75 0 1 0 1.061 1.06 1.85 1.85 0 0 1 2.557 0 1.81 1.81 0 0 1 0 2.556zM9.773 9.412V2.116a.75.75 0 1 1 1.5 0v7.296a.75.75 0 1 1-1.5 0zM2.392 7.814a.75.75 0 1 1 1.06-1.06l3.314 3.313a.75.75 0 1 1-1.06 1.06L2.391 7.815zm12.161 3.314a.75.75 0 0 1 0-1.06l3.314-3.314a.75.75 0 1 1 1.06 1.06l-3.313 3.314a.75.75 0 0 1-1.061 0z"/>
</svg>
