<svg xmlns="http://www.w3.org/2000/svg" width="44" height="40" viewBox="0 0 44 40">
    <path fill="#343434" fill-rule="nonzero" d="M42.385 24.6a2.943 2.943 0 0 0-3.473-.46l-5.658-5.659c.147-.306.211-.645.188-.984-.406-4.134-2.16-9.872-5.867-13.579-4.358-4.358-10.808-4.995-14.38-1.423-3.498 3.498-2.897 9.67 1.4 14.356 3.36 3.664 7.398 4.39 10.961 5.032.95.17 1.848.333 2.714.542.116.028.234.042.353.042.14-.002.28-.021.415-.056l5.802 5.802a2.88 2.88 0 1 0 5.371 1.3 2.88 2.88 0 0 0 2.174-4.912zm-16.563-4.194c-3.493-.628-7.104-1.278-10.121-4.57-3.744-4.081-4.365-9.361-1.446-12.28a6.705 6.705 0 0 1 4.834-1.882 10.751 10.751 0 0 1 7.425 3.305c3.427 3.426 5.055 8.789 5.436 12.665.042.431-1.062 1.533-1.424 1.895l-.056.056c-1.311 1.308-1.76 1.374-1.847 1.373-.91-.22-1.828-.386-2.801-.562zm15.503 7.206c-.547.52-1.405.52-1.952 0a.75.75 0 1 0-1.06 1.06 1.38 1.38 0 1 1-1.952 0 .75.75 0 0 0 0-1.06l-5.946-5.945a13.02 13.02 0 0 0 1.116-1.012l.054-.054c.287-.287.562-.572.812-.856l5.916 5.916a.772.772 0 0 0 1.06 0 1.412 1.412 0 0 1 1.952 0 1.38 1.38 0 0 1 0 1.951zm-4.808 9.183a.748.748 0 0 0-.982-.401 24.077 24.077 0 0 1-15.101.397 24.52 24.52 0 0 1-1.295-.454c.08-.129.168-.25.237-.386a10.43 10.43 0 0 0 .073-9.257 10.309 10.309 0 0 0-7.561-5.551c-6.15-1.197-7.16-3.433-7.842-6.23a.75.75 0 0 0-1.398-.16c-.211.418-5.105 10.348-.324 18.66a12.117 12.117 0 0 0 10.318 6.097c.092 0 .184-.001.277-.004a7.88 7.88 0 0 0 5.222-1.948c.59.236 1.199.46 1.84.663 2.37.745 4.842 1.12 7.327 1.114a24.617 24.617 0 0 0 8.808-1.559.75.75 0 0 0 .4-.981zM12.88 38.007a10.59 10.59 0 0 1-9.257-5.343c-3.212-5.584-1.535-12.212-.4-15.377.963 2.285 2.934 4.269 8.377 5.328a8.842 8.842 0 0 1 6.499 4.738 9.042 9.042 0 0 1-.06 7.918 4.154 4.154 0 0 1-.3.483 20.744 20.744 0 0 1-11.408-12.67.75.75 0 0 0-1.459.349 21.707 21.707 0 0 0 11.729 13.454 6.774 6.774 0 0 1-3.72 1.12z"/>
</svg>
