<svg xmlns="http://www.w3.org/2000/svg" width="38" height="45" viewBox="0 0 38 45">
    <path fill="#343434" fill-rule="nonzero" d="M19 9.798c-9.72 0-17.6 7.88-17.601 17.6C1.399 37.12 9.279 45 18.999 45c9.721 0 17.602-7.88 17.602-17.6 0-9.721-7.88-17.601-17.6-17.602zm8.613 4.02c.981.62 1.893 1.345 2.72 2.16H28.86a1.248 1.248 0 0 1-1.247-1.247v-.912zm-9.051-2.497v1.717c0 .28-.227.506-.506.506h-.608a2.008 2.008 0 0 0-2.006 2.006v1.008a2.008 2.008 0 0 0 2.006 2.006h5.226c.28 0 .506.226.506.505v4.516c0 .28-.227.506-.506.506H18.01a2.008 2.008 0 0 0-2.006 2.006v.332a2.008 2.008 0 0 0 2.006 2.006h1.733c.279 0 .505.226.505.505v.324a2.008 2.008 0 0 0 2.006 2.006h5.695c.279 0 .505.226.505.505v4.572c0 .279-.226.505-.505.506h-.765a2.008 2.008 0 0 0-2.006 2.005v3.405c-.565.232-1.142.432-1.73.598v-2.806a2.008 2.008 0 0 0-2.005-2.006.506.506 0 0 1-.506-.506v-2.772a2.008 2.008 0 0 0-2.006-2.006h-.983a.506.506 0 0 1-.506-.506v-.11a2.008 2.008 0 0 0-2.006-2.005h-1.17a.506.506 0 0 1-.506-.506V25.66a2.008 2.008 0 0 0-2.006-2.006H9.641a.506.506 0 0 1-.506-.506v-3.292a2.008 2.008 0 0 0-2.006-2.005H6.066a16.066 16.066 0 0 1 12.496-6.53zM2.899 27.399c.001-2.828.752-5.605 2.178-8.048h2.052c.28 0 .506.226.506.505v3.292a2.008 2.008 0 0 0 2.006 2.006h2.112c.28 0 .506.227.506.506v3.978a2.008 2.008 0 0 0 2.006 2.006h1.17c.28 0 .506.226.506.505v.11a2.008 2.008 0 0 0 2.006 2.006h.983c.28 0 .506.226.506.506v2.772a2.008 2.008 0 0 0 2.006 2.006c.28 0 .505.226.506.506v3.162A16.048 16.048 0 0 1 2.899 27.399zm23.778 14.15v-2.69c0-.28.227-.506.506-.506h.765a2.008 2.008 0 0 0 2.005-2.006v-4.572a2.008 2.008 0 0 0-2.005-2.005h-5.695a.506.506 0 0 1-.506-.506v-.324a2.008 2.008 0 0 0-2.005-2.005h-1.733a.506.506 0 0 1-.506-.506v-.332c0-.28.227-.506.506-.506h4.665a2.008 2.008 0 0 0 2.006-2.006v-4.516a2.008 2.008 0 0 0-2.006-2.006h-5.226a.506.506 0 0 1-.506-.505V15.55c0-.28.226-.506.506-.506h.608a2.008 2.008 0 0 0 2.006-2.006v-1.686c2.104.137 4.16.689 6.05 1.625v1.754a2.75 2.75 0 0 0 2.748 2.747h2.683a.71.71 0 0 0 .097-.02 16.063 16.063 0 0 1-4.963 24.09zM19 7a.75.75 0 0 1-.75-.75V1.163a.75.75 0 1 1 1.5 0V6.25A.75.75 0 0 1 19 7zm14.517 6.1a.75.75 0 0 1-.53-1.28l2.851-2.852a.75.75 0 0 1 1.06 1.06l-2.85 2.852a.747.747 0 0 1-.531.22zm-29.145-.112a.747.747 0 0 1-.53-.22l-2.74-2.739a.75.75 0 1 1 1.061-1.06l2.74 2.739a.75.75 0 0 1-.53 1.28zm6.514-4.401c-.3 0-.572-.18-.69-.456L8.23 3.517a.75.75 0 0 1 1.38-.588l1.967 4.614a.751.751 0 0 1-.69 1.044zm15.652-.235a.75.75 0 0 1-.698-1.024l1.827-4.67a.75.75 0 1 1 1.397.546l-1.827 4.671a.749.749 0 0 1-.699.477z"/>
</svg>
