<svg xmlns="http://www.w3.org/2000/svg" width="45" height="46" viewBox="0 0 45 46">
    <path fill="#343434" fill-rule="nonzero" d="M44.496 30.653a.75.75 0 0 0 0-1.06l-3.89-3.89a1.752 1.752 0 0 0-1.598-.495 1.871 1.871 0 0 0-1.36 1.106 3.112 3.112 0 0 1-4.476 1.415 3.158 3.158 0 0 1-1.477-2.32 3.108 3.108 0 0 1 1.846-3.202c.574-.242.99-.753 1.112-1.363a1.743 1.743 0 0 0-.49-1.584l-7.851-7.878a.216.216 0 0 1-.065-.207.257.257 0 0 1 .166-.189 4.619 4.619 0 1 0-4.999-7.547c-.434.434-.775.95-1.004 1.52a.282.282 0 0 1-.205.18.21.21 0 0 1-.2-.063l-3.963-3.963a.75.75 0 0 0-1.06 0l-3.89 3.89a1.76 1.76 0 0 0-.495 1.599c.12.608.535 1.117 1.106 1.359a3.11 3.11 0 0 1 1.415 4.476 3.156 3.156 0 0 1-2.319 1.477 3.108 3.108 0 0 1-3.203-1.846 1.88 1.88 0 0 0-1.364-1.112 1.735 1.735 0 0 0-1.584.49l-3.9 3.9a.75.75 0 0 0 0 1.061l3.965 3.965c.057.052.08.131.064.206a.257.257 0 0 1-.165.19 4.61 4.61 0 0 0-2.21 6.704 4.652 4.652 0 0 0 3.424 2.167 4.595 4.595 0 0 0 4.789-2.845.28.28 0 0 1 .203-.18.215.215 0 0 1 .2.064l7.85 7.876a1.74 1.74 0 0 0 1.585.49 1.88 1.88 0 0 0 1.364-1.112 3.093 3.093 0 0 1 3.203-1.846 3.155 3.155 0 0 1 2.32 1.477 3.11 3.11 0 0 1-1.416 4.476c-.571.242-.986.75-1.106 1.36a1.76 1.76 0 0 0 .494 1.597l3.89 3.89a.75.75 0 0 0 1.061 0l3.965-3.964a.21.21 0 0 1 .206-.064c.088.019.16.082.19.166a4.619 4.619 0 1 0 7.546-4.999 4.534 4.534 0 0 0-1.52-1.005.28.28 0 0 1-.18-.203.21.21 0 0 1 .064-.2l3.962-3.964zM10.861 25.11a1.781 1.781 0 0 0-1.639 1.126 3.121 3.121 0 1 1-4.058-4.073c.554-.217.96-.698 1.082-1.28.118-.57-.06-1.16-.472-1.57l-3.435-3.435 3.37-3.37a.267.267 0 0 1 .24-.078.378.378 0 0 1 .268.231 4.621 4.621 0 1 0 6.078-6.078.371.371 0 0 1-.225-.264.273.273 0 0 1 .082-.254l3.36-3.36 3.433 3.433c.407.41.994.588 1.561.472a1.786 1.786 0 0 0 1.296-1.09 3.097 3.097 0 0 1 3.229-1.913 3.157 3.157 0 0 1 2.32 1.477 3.11 3.11 0 0 1-1.491 4.509c-.553.216-.96.697-1.081 1.278-.12.57.058 1.162.471 1.572l3.435 3.435-3.36 3.36a.29.29 0 0 1-.254.082.371.371 0 0 1-.264-.225 4.619 4.619 0 1 0-7.499 5.114c.408.41.89.736 1.42.964a.377.377 0 0 1 .231.267.256.256 0 0 1-.077.24l-3.37 3.37-3.433-3.432a1.725 1.725 0 0 0-1.218-.508zM39 35.117a1.781 1.781 0 0 0 1.09 1.296c.382.153.728.382 1.019.673a3.11 3.11 0 0 1 .894 2.557 3.158 3.158 0 0 1-1.477 2.32 3.11 3.11 0 0 1-4.51-1.492 1.763 1.763 0 0 0-1.278-1.082c-.57-.118-1.161.06-1.572.472l-3.434 3.435-3.36-3.36a.273.273 0 0 1-.083-.254.371.371 0 0 1 .226-.264 4.619 4.619 0 1 0-5.114-7.498c-.41.407-.736.89-.964 1.42a.378.378 0 0 1-.269.231.261.261 0 0 1-.24-.078l-3.37-3.37 3.384-3.383c.42-.411.604-1.007.489-1.584a1.875 1.875 0 0 0-1.111-1.363 3.108 3.108 0 0 1-1.847-3.202 3.156 3.156 0 0 1 1.478-2.32 3.105 3.105 0 0 1 3.212-.02h.001a3.12 3.12 0 0 1 1.263 1.435c.242.57.75.985 1.36 1.106a1.75 1.75 0 0 0 1.597-.494l3.348-3.348 3.37 3.37a.256.256 0 0 1 .077.24.377.377 0 0 1-.23.268 4.599 4.599 0 0 0-2.745 4.748A4.651 4.651 0 0 0 32.371 29a4.613 4.613 0 0 0 6.656-2.093.371.371 0 0 1 .263-.225.28.28 0 0 1 .254.082l3.36 3.36-3.432 3.433A1.72 1.72 0 0 0 39 35.117z"/>
</svg>
